{
    "asset" : {
        "generator" : "Khronos glTF Blender I/O v3.4.50",
        "version" : "2.0"
    },
    "scene" : 0,
    "scenes" : [
        {
            "name" : "Scene",
            "nodes" : [
                0,
                1,
                2,
                3,
                4,
                5,
                6
            ]
        }
    ],
    "nodes" : [
        {
            "mesh" : 0,
            "name" : "support_01",
            "rotation" : [
                0.7071070671081543,
                0,
                0,
                0.7071065306663513
            ],
            "scale" : [
                0.011686025187373161,
                0.011686020530760288,
                0.011686020530760288
            ],
            "translation" : [
                0.013347990810871124,
                -0.5362480282783508,
                0.006302975118160248
            ]
        },
        {
            "mesh" : 1,
            "name" : "leg_01",
            "rotation" : [
                0.7071070671081543,
                0,
                0,
                0.7071065306663513
            ],
            "scale" : [
                0.011686025187373161,
                0.011686020530760288,
                0.011686020530760288
            ],
            "translation" : [
                0.013347990810871124,
                -0.5362480282783508,
                0.006302975118160248
            ]
        },
        {
            "mesh" : 2,
            "name" : "leg_02",
            "rotation" : [
                0.7071070671081543,
                0,
                0,
                0.7071065306663513
            ],
            "scale" : [
                0.011686025187373161,
                0.011686020530760288,
                0.011686020530760288
            ],
            "translation" : [
                0.013347990810871124,
                -0.5362480282783508,
                0.006302975118160248
            ]
        },
        {
            "mesh" : 3,
            "name" : "leg_03",
            "rotation" : [
                0.7071070671081543,
                0,
                0,
                0.7071065306663513
            ],
            "scale" : [
                0.011686025187373161,
                0.011686020530760288,
                0.011686020530760288
            ],
            "translation" : [
                0.013347990810871124,
                -0.5362480282783508,
                0.006302975118160248
            ]
        },
        {
            "mesh" : 4,
            "name" : "leg_04",
            "rotation" : [
                0.7071070671081543,
                0,
                0,
                0.7071065306663513
            ],
            "scale" : [
                0.011686025187373161,
                0.011686020530760288,
                0.011686020530760288
            ],
            "translation" : [
                0.013347990810871124,
                -0.5362480282783508,
                0.006302975118160248
            ]
        },
        {
            "mesh" : 5,
            "name" : "support_02",
            "rotation" : [
                0.7071070671081543,
                0,
                0,
                0.7071065306663513
            ],
            "scale" : [
                0.011686025187373161,
                0.011686020530760288,
                0.011686020530760288
            ],
            "translation" : [
                0.013347990810871124,
                -0.5362480282783508,
                0.006302975118160248
            ]
        },
        {
            "mesh" : 6,
            "name" : "bbq_cooking_grate_01",
            "rotation" : [
                0.7071070671081543,
                0,
                0,
                0.7071065306663513
            ],
            "scale" : [
                0.011686025187373161,
                0.011686020530760288,
                0.011686020530760288
            ],
            "translation" : [
                0.013347990810871124,
                -0.5362480282783508,
                0.006302975118160248
            ]
        }
    ],
    "meshes" : [
        {
            "name" : "Mesh",
            "primitives" : [
                {
                    "attributes" : {
                        "POSITION" : 0,
                        "TEXCOORD_0" : 1,
                        "NORMAL" : 2
                    },
                    "indices" : 3
                }
            ]
        },
        {
            "name" : "Mesh.001",
            "primitives" : [
                {
                    "attributes" : {
                        "POSITION" : 4,
                        "TEXCOORD_0" : 5,
                        "NORMAL" : 6
                    },
                    "indices" : 7
                }
            ]
        },
        {
            "name" : "Mesh.002",
            "primitives" : [
                {
                    "attributes" : {
                        "POSITION" : 8,
                        "TEXCOORD_0" : 9,
                        "NORMAL" : 10
                    },
                    "indices" : 11
                }
            ]
        },
        {
            "name" : "Mesh.003",
            "primitives" : [
                {
                    "attributes" : {
                        "POSITION" : 12,
                        "TEXCOORD_0" : 13,
                        "NORMAL" : 14
                    },
                    "indices" : 15
                }
            ]
        },
        {
            "name" : "Mesh.004",
            "primitives" : [
                {
                    "attributes" : {
                        "POSITION" : 16,
                        "TEXCOORD_0" : 17,
                        "NORMAL" : 18
                    },
                    "indices" : 19
                }
            ]
        },
        {
            "name" : "Mesh.005",
            "primitives" : [
                {
                    "attributes" : {
                        "POSITION" : 20,
                        "TEXCOORD_0" : 21,
                        "NORMAL" : 22
                    },
                    "indices" : 23
                }
            ]
        },
        {
            "name" : "Mesh.006",
            "primitives" : [
                {
                    "attributes" : {
                        "POSITION" : 24,
                        "TEXCOORD_0" : 25,
                        "NORMAL" : 26
                    },
                    "indices" : 27
                }
            ]
        }
    ],
    "accessors" : [
        {
            "bufferView" : 0,
            "componentType" : 5126,
            "count" : 536,
            "max" : [
                5.277914524078369,
                6.346714973449707,
                -33.20893478393555
            ],
            "min" : [
                -6.837414741516113,
                -5.768617153167725,
                -36.09148406982422
            ],
            "type" : "VEC3"
        },
        {
            "bufferView" : 1,
            "componentType" : 5126,
            "count" : 536,
            "type" : "VEC2"
        },
        {
            "bufferView" : 2,
            "componentType" : 5126,
            "count" : 536,
            "type" : "VEC3"
        },
        {
            "bufferView" : 3,
            "componentType" : 5123,
            "count" : 2400,
            "type" : "SCALAR"
        },
        {
            "bufferView" : 4,
            "componentType" : 5126,
            "count" : 168,
            "max" : [
                13.27775764465332,
                3.774043560028076,
                -3.1018333435058594
            ],
            "min" : [
                -19.781763076782227,
                0.3255401849746704,
                -81.00264739990234
            ],
            "type" : "VEC3"
        },
        {
            "bufferView" : 5,
            "componentType" : 5126,
            "count" : 168,
            "type" : "VEC2"
        },
        {
            "bufferView" : 6,
            "componentType" : 5126,
            "count" : 168,
            "type" : "VEC3"
        },
        {
            "bufferView" : 7,
            "componentType" : 5123,
            "count" : 240,
            "type" : "SCALAR"
        },
        {
            "bufferView" : 8,
            "componentType" : 5126,
            "count" : 168,
            "max" : [
                17.497325897216797,
                1.1163482666015625,
                -3.2714643478393555
            ],
            "min" : [
                -13.957690238952637,
                -2.3255341053009033,
                -81.71460723876953
            ],
            "type" : "VEC3"
        },
        {
            "bufferView" : 9,
            "componentType" : 5126,
            "count" : 168,
            "type" : "VEC2"
        },
        {
            "bufferView" : 10,
            "componentType" : 5126,
            "count" : 168,
            "type" : "VEC3"
        },
        {
            "bufferView" : 11,
            "componentType" : 5123,
            "count" : 240,
            "type" : "SCALAR"
        },
        {
            "bufferView" : 12,
            "componentType" : 5126,
            "count" : 168,
            "max" : [
                0.33829551935195923,
                13.641373634338379,
                -3.225775718688965
            ],
            "min" : [
                -8.636966705322266,
                -17.92198371887207,
                -81.4555435180664
            ],
            "type" : "VEC3"
        },
        {
            "bufferView" : 13,
            "componentType" : 5126,
            "count" : 168,
            "type" : "VEC2"
        },
        {
            "bufferView" : 14,
            "componentType" : 5126,
            "count" : 168,
            "type" : "VEC3"
        },
        {
            "bufferView" : 15,
            "componentType" : 5123,
            "count" : 240,
            "type" : "SCALAR"
        },
        {
            "bufferView" : 16,
            "componentType" : 5126,
            "count" : 166,
            "max" : [
                3.3238072395324707,
                17.79936408996582,
                -4.044654846191406
            ],
            "min" : [
                -0.11271870136260986,
                -12.44204044342041,
                -82.87186431884766
            ],
            "type" : "VEC3"
        },
        {
            "bufferView" : 17,
            "componentType" : 5126,
            "count" : 166,
            "type" : "VEC2"
        },
        {
            "bufferView" : 18,
            "componentType" : 5126,
            "count" : 166,
            "type" : "VEC3"
        },
        {
            "bufferView" : 19,
            "componentType" : 5123,
            "count" : 240,
            "type" : "SCALAR"
        },
        {
            "bufferView" : 20,
            "componentType" : 5126,
            "count" : 255,
            "max" : [
                10.947061538696289,
                11.68684196472168,
                -71.44337463378906
            ],
            "min" : [
                -13.886307716369629,
                -13.146528244018555,
                -87.43733215332031
            ],
            "type" : "VEC3"
        },
        {
            "bufferView" : 21,
            "componentType" : 5126,
            "count" : 255,
            "type" : "VEC2"
        },
        {
            "bufferView" : 22,
            "componentType" : 5126,
            "count" : 255,
            "type" : "VEC3"
        },
        {
            "bufferView" : 23,
            "componentType" : 5123,
            "count" : 480,
            "type" : "SCALAR"
        },
        {
            "bufferView" : 24,
            "componentType" : 5126,
            "count" : 451,
            "max" : [
                6.51878547668457,
                14.780956268310547,
                -87.62632751464844
            ],
            "min" : [
                -8.184139251708984,
                -18.878192901611328,
                -88.67414093017578
            ],
            "type" : "VEC3"
        },
        {
            "bufferView" : 25,
            "componentType" : 5126,
            "count" : 451,
            "type" : "VEC2"
        },
        {
            "bufferView" : 26,
            "componentType" : 5126,
            "count" : 451,
            "type" : "VEC3"
        },
        {
            "bufferView" : 27,
            "componentType" : 5123,
            "count" : 960,
            "type" : "SCALAR"
        }
    ],
    "bufferViews" : [
        {
            "buffer" : 0,
            "byteLength" : 6432,
            "byteOffset" : 0,
            "target" : 34962
        },
        {
            "buffer" : 0,
            "byteLength" : 4288,
            "byteOffset" : 6432,
            "target" : 34962
        },
        {
            "buffer" : 0,
            "byteLength" : 6432,
            "byteOffset" : 10720,
            "target" : 34962
        },
        {
            "buffer" : 0,
            "byteLength" : 4800,
            "byteOffset" : 17152,
            "target" : 34963
        },
        {
            "buffer" : 0,
            "byteLength" : 2016,
            "byteOffset" : 21952,
            "target" : 34962
        },
        {
            "buffer" : 0,
            "byteLength" : 1344,
            "byteOffset" : 23968,
            "target" : 34962
        },
        {
            "buffer" : 0,
            "byteLength" : 2016,
            "byteOffset" : 25312,
            "target" : 34962
        },
        {
            "buffer" : 0,
            "byteLength" : 480,
            "byteOffset" : 27328,
            "target" : 34963
        },
        {
            "buffer" : 0,
            "byteLength" : 2016,
            "byteOffset" : 27808,
            "target" : 34962
        },
        {
            "buffer" : 0,
            "byteLength" : 1344,
            "byteOffset" : 29824,
            "target" : 34962
        },
        {
            "buffer" : 0,
            "byteLength" : 2016,
            "byteOffset" : 31168,
            "target" : 34962
        },
        {
            "buffer" : 0,
            "byteLength" : 480,
            "byteOffset" : 33184,
            "target" : 34963
        },
        {
            "buffer" : 0,
            "byteLength" : 2016,
            "byteOffset" : 33664,
            "target" : 34962
        },
        {
            "buffer" : 0,
            "byteLength" : 1344,
            "byteOffset" : 35680,
            "target" : 34962
        },
        {
            "buffer" : 0,
            "byteLength" : 2016,
            "byteOffset" : 37024,
            "target" : 34962
        },
        {
            "buffer" : 0,
            "byteLength" : 480,
            "byteOffset" : 39040,
            "target" : 34963
        },
        {
            "buffer" : 0,
            "byteLength" : 1992,
            "byteOffset" : 39520,
            "target" : 34962
        },
        {
            "buffer" : 0,
            "byteLength" : 1328,
            "byteOffset" : 41512,
            "target" : 34962
        },
        {
            "buffer" : 0,
            "byteLength" : 1992,
            "byteOffset" : 42840,
            "target" : 34962
        },
        {
            "buffer" : 0,
            "byteLength" : 480,
            "byteOffset" : 44832,
            "target" : 34963
        },
        {
            "buffer" : 0,
            "byteLength" : 3060,
            "byteOffset" : 45312,
            "target" : 34962
        },
        {
            "buffer" : 0,
            "byteLength" : 2040,
            "byteOffset" : 48372,
            "target" : 34962
        },
        {
            "buffer" : 0,
            "byteLength" : 3060,
            "byteOffset" : 50412,
            "target" : 34962
        },
        {
            "buffer" : 0,
            "byteLength" : 960,
            "byteOffset" : 53472,
            "target" : 34963
        },
        {
            "buffer" : 0,
            "byteLength" : 5412,
            "byteOffset" : 54432,
            "target" : 34962
        },
        {
            "buffer" : 0,
            "byteLength" : 3608,
            "byteOffset" : 59844,
            "target" : 34962
        },
        {
            "buffer" : 0,
            "byteLength" : 5412,
            "byteOffset" : 63452,
            "target" : 34962
        },
        {
            "buffer" : 0,
            "byteLength" : 1920,
            "byteOffset" : 68864,
            "target" : 34963
        }
    ],
    "buffers" : [
        {
            "byteLength" : 70784,
            "uri" : "data:application/octet-stream;base64,"
        }
    ]
}
