{
    "asset" : {
        "generator" : "Khronos glTF Blender I/O v3.4.50",
        "version" : "2.0"
    },
    "scene" : 0,
    "scenes" : [
        {
            "name" : "Scene",
            "nodes" : [
                0,
                1,
                2,
                3,
                4
            ]
        }
    ],
    "nodes" : [
        {
            "mesh" : 0,
            "name" : "leg_01",
            "rotation" : [
                0.7071069478988647,
                0,
                0,
                0.7071066498756409
            ],
            "scale" : [
                0.012693691998720169,
                0.012693687342107296,
                0.012693687342107296
            ],
            "translation" : [
                -0.0005505140870809555,
                -0.23475971817970276,
                0
            ]
        },
        {
            "mesh" : 1,
            "name" : "seat_01",
            "scale" : [
                0.012382175773382187,
                0.025305800139904022,
                0.011781472712755203
            ],
            "translation" : [
                -0.0009535979479551315,
                0.1629173755645752,
                0.0009271245216950774
            ]
        },
        {
            "mesh" : 2,
            "name" : "seat_frame_01",
            "rotation" : [
                0.7071069478988647,
                0,
                0,
                0.7071066498756409
            ],
            "scale" : [
                0.012693691998720169,
                0.012693687342107296,
                0.012693687342107296
            ],
            "translation" : [
                -0.0005505140870809555,
                -0.23475971817970276,
                0
            ]
        },
        {
            "mesh" : 3,
            "name" : "seat_frame_02",
            "rotation" : [
                0.7071069478988647,
                0,
                0,
                0.7071066498756409
            ],
            "scale" : [
                0.012693691998720169,
                0.012693687342107296,
                0.012693687342107296
            ],
            "translation" : [
                -0.0005505140870809555,
                -0.23475971817970276,
                0
            ]
        },
        {
            "mesh" : 4,
            "name" : "leg_02",
            "rotation" : [
                0.7071069478988647,
                0,
                0,
                0.7071066498756409
            ],
            "scale" : [
                0.012693691998720169,
                0.012693687342107296,
                0.012693687342107296
            ],
            "translation" : [
                -0.0005505140870809555,
                -0.23475971817970276,
                0
            ]
        }
    ],
    "meshes" : [
        {
            "name" : "Mesh",
            "primitives" : [
                {
                    "attributes" : {
                        "POSITION" : 0,
                        "TEXCOORD_0" : 1,
                        "NORMAL" : 2
                    },
                    "indices" : 3
                }
            ]
        },
        {
            "name" : "Mesh.001",
            "primitives" : [
                {
                    "attributes" : {
                        "POSITION" : 4,
                        "TEXCOORD_0" : 5,
                        "NORMAL" : 6
                    },
                    "indices" : 7
                }
            ]
        },
        {
            "name" : "Mesh.002",
            "primitives" : [
                {
                    "attributes" : {
                        "POSITION" : 8,
                        "TEXCOORD_0" : 9,
                        "NORMAL" : 10
                    },
                    "indices" : 11
                }
            ]
        },
        {
            "name" : "Mesh.003",
            "primitives" : [
                {
                    "attributes" : {
                        "POSITION" : 12,
                        "TEXCOORD_0" : 13,
                        "NORMAL" : 14
                    },
                    "indices" : 15
                }
            ]
        },
        {
            "name" : "Mesh.004",
            "primitives" : [
                {
                    "attributes" : {
                        "POSITION" : 16,
                        "TEXCOORD_0" : 17,
                        "NORMAL" : 18
                    },
                    "indices" : 19
                }
            ]
        }
    ],
    "accessors" : [
        {
            "bufferView" : 0,
            "componentType" : 5126,
            "count" : 1678,
            "max" : [
                39.34626770019531,
                -36.773902893066406,
                -0.19676494598388672
            ],
            "min" : [
                -39.346275329589844,
                -38.95487594604492,
                -35.340721130371094
            ],
            "type" : "VEC3"
        },
        {
            "bufferView" : 1,
            "componentType" : 5126,
            "count" : 1678,
            "type" : "VEC2"
        },
        {
            "bufferView" : 2,
            "componentType" : 5126,
            "count" : 1678,
            "type" : "VEC3"
        },
        {
            "bufferView" : 3,
            "componentType" : 5123,
            "count" : 7272,
            "type" : "SCALAR"
        },
        {
            "bufferView" : 4,
            "componentType" : 5126,
            "count" : 242,
            "max" : [
                40.4576416015625,
                2.740274429321289,
                39.8917236328125
            ],
            "min" : [
                -40.27827072143555,
                0,
                -40.07044219970703
            ],
            "type" : "VEC3"
        },
        {
            "bufferView" : 5,
            "componentType" : 5126,
            "count" : 242,
            "type" : "VEC2"
        },
        {
            "bufferView" : 6,
            "componentType" : 5126,
            "count" : 242,
            "type" : "VEC3"
        },
        {
            "bufferView" : 7,
            "componentType" : 5123,
            "count" : 1296,
            "type" : "SCALAR"
        },
        {
            "bufferView" : 8,
            "componentType" : 5126,
            "count" : 1643,
            "max" : [
                -33.753292083740234,
                37.05500793457031,
                -30.303342819213867
            ],
            "min" : [
                -38.8067741394043,
                -37.05501937866211,
                -31.642263412475586
            ],
            "type" : "VEC3"
        },
        {
            "bufferView" : 9,
            "componentType" : 5126,
            "count" : 1643,
            "type" : "VEC2"
        },
        {
            "bufferView" : 10,
            "componentType" : 5126,
            "count" : 1643,
            "type" : "VEC3"
        },
        {
            "bufferView" : 11,
            "componentType" : 5123,
            "count" : 2808,
            "type" : "SCALAR"
        },
        {
            "bufferView" : 12,
            "componentType" : 5126,
            "count" : 1675,
            "max" : [
                38.806758880615234,
                37.055015563964844,
                -30.303342819213867
            ],
            "min" : [
                33.75328063964844,
                -37.05501937866211,
                -31.642263412475586
            ],
            "type" : "VEC3"
        },
        {
            "bufferView" : 13,
            "componentType" : 5126,
            "count" : 1675,
            "type" : "VEC2"
        },
        {
            "bufferView" : 14,
            "componentType" : 5126,
            "count" : 1675,
            "type" : "VEC3"
        },
        {
            "bufferView" : 15,
            "componentType" : 5123,
            "count" : 2808,
            "type" : "SCALAR"
        },
        {
            "bufferView" : 16,
            "componentType" : 5126,
            "count" : 4320,
            "max" : [
                39.34626388549805,
                38.95487594604492,
                -0.19676494598388672
            ],
            "min" : [
                -39.346275329589844,
                37.04994583129883,
                -35.363746643066406
            ],
            "type" : "VEC3"
        },
        {
            "bufferView" : 17,
            "componentType" : 5126,
            "count" : 4320,
            "type" : "VEC2"
        },
        {
            "bufferView" : 18,
            "componentType" : 5126,
            "count" : 4320,
            "type" : "VEC3"
        },
        {
            "bufferView" : 19,
            "componentType" : 5123,
            "count" : 7272,
            "type" : "SCALAR"
        }
    ],
    "bufferViews" : [
        {
            "buffer" : 0,
            "byteLength" : 20136,
            "byteOffset" : 0,
            "target" : 34962
        },
        {
            "buffer" : 0,
            "byteLength" : 13424,
            "byteOffset" : 20136,
            "target" : 34962
        },
        {
            "buffer" : 0,
            "byteLength" : 20136,
            "byteOffset" : 33560,
            "target" : 34962
        },
        {
            "buffer" : 0,
            "byteLength" : 14544,
            "byteOffset" : 53696,
            "target" : 34963
        },
        {
            "buffer" : 0,
            "byteLength" : 2904,
            "byteOffset" : 68240,
            "target" : 34962
        },
        {
            "buffer" : 0,
            "byteLength" : 1936,
            "byteOffset" : 71144,
            "target" : 34962
        },
        {
            "buffer" : 0,
            "byteLength" : 2904,
            "byteOffset" : 73080,
            "target" : 34962
        },
        {
            "buffer" : 0,
            "byteLength" : 2592,
            "byteOffset" : 75984,
            "target" : 34963
        },
        {
            "buffer" : 0,
            "byteLength" : 19716,
            "byteOffset" : 78576,
            "target" : 34962
        },
        {
            "buffer" : 0,
            "byteLength" : 13144,
            "byteOffset" : 98292,
            "target" : 34962
        },
        {
            "buffer" : 0,
            "byteLength" : 19716,
            "byteOffset" : 111436,
            "target" : 34962
        },
        {
            "buffer" : 0,
            "byteLength" : 5616,
            "byteOffset" : 131152,
            "target" : 34963
        },
        {
            "buffer" : 0,
            "byteLength" : 20100,
            "byteOffset" : 136768,
            "target" : 34962
        },
        {
            "buffer" : 0,
            "byteLength" : 13400,
            "byteOffset" : 156868,
            "target" : 34962
        },
        {
            "buffer" : 0,
            "byteLength" : 20100,
            "byteOffset" : 170268,
            "target" : 34962
        },
        {
            "buffer" : 0,
            "byteLength" : 5616,
            "byteOffset" : 190368,
            "target" : 34963
        },
        {
            "buffer" : 0,
            "byteLength" : 51840,
            "byteOffset" : 195984,
            "target" : 34962
        },
        {
            "buffer" : 0,
            "byteLength" : 34560,
            "byteOffset" : 247824,
            "target" : 34962
        },
        {
            "buffer" : 0,
            "byteLength" : 51840,
            "byteOffset" : 282384,
            "target" : 34962
        },
        {
            "buffer" : 0,
            "byteLength" : 14544,
            "byteOffset" : 334224,
            "target" : 34963
        }
    ],
    "buffers" : [
        {
            "byteLength" : 348768,
            "uri" : "data:application/octet-stream;base64,"
        }
    ]
}
