{
    "asset" : {
        "generator" : "Khronos glTF Blender I/O v3.4.50",
        "version" : "2.0"
    },
    "scene" : 0,
    "scenes" : [
        {
            "name" : "Scene",
            "nodes" : [
                0,
                1,
                2,
                3
            ]
        }
    ],
    "nodes" : [
        {
            "mesh" : 0,
            "name" : "planter_container_01",
            "rotation" : [
                0.70710688829422,
                0,
                0,
                0.7071066498756409
            ],
            "scale" : [
                0.032037556171417236,
                0.032037537544965744,
                0.032037537544965744
            ],
            "translation" : [
                0.00565923098474741,
                -0.1422363519668579,
                0.020367197692394257
            ]
        },
        {
            "mesh" : 1,
            "name" : "plant_01",
            "rotation" : [
                0.70710688829422,
                0,
                0,
                0.7071066498756409
            ],
            "scale" : [
                0.032037556171417236,
                0.032037537544965744,
                0.032037537544965744
            ],
            "translation" : [
                0.00565923098474741,
                -0.1422363519668579,
                0.02036714181303978
            ]
        },
        {
            "mesh" : 2,
            "name" : "pedestal_01",
            "rotation" : [
                0.70710688829422,
                0,
                0,
                0.7071066498756409
            ],
            "scale" : [
                0.032037556171417236,
                0.032037537544965744,
                0.032037537544965744
            ],
            "translation" : [
                0.00565923098474741,
                -0.1422363519668579,
                0.02036721259355545
            ]
        },
        {
            "mesh" : 3,
            "name" : "soil_01",
            "rotation" : [
                0.70710688829422,
                0,
                0,
                0.7071066498756409
            ],
            "scale" : [
                0.032037556171417236,
                0.032037537544965744,
                0.032037537544965744
            ],
            "translation" : [
                0.00565923098474741,
                -0.1422363519668579,
                0.02036714181303978
            ]
        }
    ],
    "meshes" : [
        {
            "name" : "Mesh",
            "primitives" : [
                {
                    "attributes" : {
                        "POSITION" : 0,
                        "TEXCOORD_0" : 1,
                        "NORMAL" : 2
                    },
                    "indices" : 3
                }
            ]
        },
        {
            "name" : "Mesh.001",
            "primitives" : [
                {
                    "attributes" : {
                        "POSITION" : 4,
                        "TEXCOORD_0" : 5,
                        "NORMAL" : 6
                    },
                    "indices" : 7
                }
            ]
        },
        {
            "name" : "Mesh.002",
            "primitives" : [
                {
                    "attributes" : {
                        "POSITION" : 8,
                        "TEXCOORD_0" : 9,
                        "NORMAL" : 10
                    },
                    "indices" : 11
                }
            ]
        },
        {
            "name" : "Mesh.003",
            "primitives" : [
                {
                    "attributes" : {
                        "POSITION" : 12,
                        "TEXCOORD_0" : 13,
                        "NORMAL" : 14
                    },
                    "indices" : 15
                }
            ]
        }
    ],
    "accessors" : [
        {
            "bufferView" : 0,
            "componentType" : 5126,
            "count" : 1456,
            "max" : [
                4.826452732086182,
                4.3679518699646,
                -0.10294166207313538
            ],
            "min" : [
                -5.179739952087402,
                -5.639413356781006,
                -8.805215835571289
            ],
            "type" : "VEC3"
        },
        {
            "bufferView" : 1,
            "componentType" : 5126,
            "count" : 1456,
            "type" : "VEC2"
        },
        {
            "bufferView" : 2,
            "componentType" : 5126,
            "count" : 1456,
            "type" : "VEC3"
        },
        {
            "bufferView" : 3,
            "componentType" : 5123,
            "count" : 6696,
            "type" : "SCALAR"
        },
        {
            "bufferView" : 4,
            "componentType" : 5126,
            "count" : 51954,
            "max" : [
                6.0238423347473145,
                4.897796154022217,
                -6.366842746734619
            ],
            "min" : [
                -5.911830425262451,
                -7.476609706878662,
                -31.28752326965332
            ],
            "type" : "VEC3"
        },
        {
            "bufferView" : 5,
            "componentType" : 5126,
            "count" : 51954,
            "type" : "VEC2"
        },
        {
            "bufferView" : 6,
            "componentType" : 5126,
            "count" : 51954,
            "type" : "VEC3"
        },
        {
            "bufferView" : 7,
            "componentType" : 5123,
            "count" : 205332,
            "type" : "SCALAR"
        },
        {
            "bufferView" : 8,
            "componentType" : 5126,
            "count" : 1944,
            "max" : [
                3.580332040786743,
                3.121682643890381,
                -0.07414054870605469
            ],
            "min" : [
                -3.933615207672119,
                -4.3931450843811035,
                -0.1560288965702057
            ],
            "type" : "VEC3"
        },
        {
            "bufferView" : 9,
            "componentType" : 5126,
            "count" : 1944,
            "type" : "VEC2"
        },
        {
            "bufferView" : 10,
            "componentType" : 5126,
            "count" : 1944,
            "type" : "VEC3"
        },
        {
            "bufferView" : 11,
            "componentType" : 5123,
            "count" : 2376,
            "type" : "SCALAR"
        },
        {
            "bufferView" : 12,
            "componentType" : 5126,
            "count" : 435,
            "max" : [
                3.019796371459961,
                2.5680365562438965,
                -6.388514995574951
            ],
            "min" : [
                -3.4175357818603516,
                -3.862295389175415,
                -6.84829044342041
            ],
            "type" : "VEC3"
        },
        {
            "bufferView" : 13,
            "componentType" : 5126,
            "count" : 435,
            "type" : "VEC2"
        },
        {
            "bufferView" : 14,
            "componentType" : 5126,
            "count" : 435,
            "type" : "VEC3"
        },
        {
            "bufferView" : 15,
            "componentType" : 5123,
            "count" : 2418,
            "type" : "SCALAR"
        }
    ],
    "bufferViews" : [
        {
            "buffer" : 0,
            "byteLength" : 17472,
            "byteOffset" : 0,
            "target" : 34962
        },
        {
            "buffer" : 0,
            "byteLength" : 11648,
            "byteOffset" : 17472,
            "target" : 34962
        },
        {
            "buffer" : 0,
            "byteLength" : 17472,
            "byteOffset" : 29120,
            "target" : 34962
        },
        {
            "buffer" : 0,
            "byteLength" : 13392,
            "byteOffset" : 46592,
            "target" : 34963
        },
        {
            "buffer" : 0,
            "byteLength" : 623448,
            "byteOffset" : 59984,
            "target" : 34962
        },
        {
            "buffer" : 0,
            "byteLength" : 415632,
            "byteOffset" : 683432,
            "target" : 34962
        },
        {
            "buffer" : 0,
            "byteLength" : 623448,
            "byteOffset" : 1099064,
            "target" : 34962
        },
        {
            "buffer" : 0,
            "byteLength" : 410664,
            "byteOffset" : 1722512,
            "target" : 34963
        },
        {
            "buffer" : 0,
            "byteLength" : 23328,
            "byteOffset" : 2133176,
            "target" : 34962
        },
        {
            "buffer" : 0,
            "byteLength" : 15552,
            "byteOffset" : 2156504,
            "target" : 34962
        },
        {
            "buffer" : 0,
            "byteLength" : 23328,
            "byteOffset" : 2172056,
            "target" : 34962
        },
        {
            "buffer" : 0,
            "byteLength" : 4752,
            "byteOffset" : 2195384,
            "target" : 34963
        },
        {
            "buffer" : 0,
            "byteLength" : 5220,
            "byteOffset" : 2200136,
            "target" : 34962
        },
        {
            "buffer" : 0,
            "byteLength" : 3480,
            "byteOffset" : 2205356,
            "target" : 34962
        },
        {
            "buffer" : 0,
            "byteLength" : 5220,
            "byteOffset" : 2208836,
            "target" : 34962
        },
        {
            "buffer" : 0,
            "byteLength" : 4836,
            "byteOffset" : 2214056,
            "target" : 34963
        }
    ],
    "buffers" : [
        {
            "byteLength" : 2218892,
            "uri" : "data:application/octet-stream;base64,"
        }
    ]
}
