{
    "asset" : {
        "generator" : "Khronos glTF Blender I/O v3.4.50",
        "version" : "2.0"
    },
    "scene" : 0,
    "scenes" : [
        {
            "name" : "Scene",
            "nodes" : [
                0,
                1,
                2,
                3,
                4
            ]
        }
    ],
    "nodes" : [
        {
            "mesh" : 0,
            "name" : "plant_01",
            "rotation" : [
                0.7071069478988647,
                0,
                0,
                0.7071065902709961
            ],
            "scale" : [
                0.02095603011548519,
                0.020956024527549744,
                0.020956024527549744
            ],
            "translation" : [
                -0.03369127959012985,
                0.033462971448898315,
                -0.10855002701282501
            ]
        },
        {
            "mesh" : 1,
            "name" : "pedestal_01",
            "rotation" : [
                0.7071070671081543,
                0,
                0,
                0.7071065902709961
            ],
            "scale" : [
                0.038230910897254944,
                0.03823089972138405,
                0.03823089972138405
            ],
            "translation" : [
                -0.019511284306645393,
                -0.32137471437454224,
                0.001698516309261322
            ]
        },
        {
            "mesh" : 2,
            "name" : "planter_container_01",
            "rotation" : [
                0.24425064027309418,
                -0.6635816693305969,
                0.6635833978652954,
                0.24425008893013
            ],
            "scale" : [
                0.001451477175578475,
                0.0014514768263325095,
                0.0017511602491140366
            ]
        },
        {
            "mesh" : 3,
            "name" : "vase_neck_01",
            "rotation" : [
                0.7071070671081543,
                0,
                0,
                0.7071065902709961
            ],
            "scale" : [
                0.038230910897254944,
                0.03823089972138405,
                0.03823089972138405
            ],
            "translation" : [
                -0.019511284306645393,
                -0.32137471437454224,
                0.001698516309261322
            ]
        },
        {
            "mesh" : 4,
            "name" : "soil_01",
            "rotation" : [
                0.7071069478988647,
                0,
                0,
                0.7071065902709961
            ],
            "scale" : [
                0.02095603011548519,
                0.020956024527549744,
                0.020956024527549744
            ],
            "translation" : [
                -0.03369127959012985,
                0.033462971448898315,
                -0.10855002701282501
            ]
        }
    ],
    "meshes" : [
        {
            "name" : "Mesh",
            "primitives" : [
                {
                    "attributes" : {
                        "POSITION" : 0,
                        "TEXCOORD_0" : 1,
                        "NORMAL" : 2
                    },
                    "indices" : 3
                }
            ]
        },
        {
            "name" : "Mesh.001",
            "primitives" : [
                {
                    "attributes" : {
                        "POSITION" : 4,
                        "TEXCOORD_0" : 5,
                        "NORMAL" : 6
                    },
                    "indices" : 7
                }
            ]
        },
        {
            "name" : "Mesh.002",
            "primitives" : [
                {
                    "attributes" : {
                        "POSITION" : 8,
                        "TEXCOORD_0" : 9,
                        "NORMAL" : 10
                    },
                    "indices" : 11
                }
            ]
        },
        {
            "name" : "Mesh.003",
            "primitives" : [
                {
                    "attributes" : {
                        "POSITION" : 12,
                        "TEXCOORD_0" : 13,
                        "NORMAL" : 14
                    },
                    "indices" : 15
                }
            ]
        },
        {
            "name" : "Mesh.004",
            "primitives" : [
                {
                    "attributes" : {
                        "POSITION" : 16,
                        "TEXCOORD_0" : 17,
                        "NORMAL" : 18
                    },
                    "indices" : 19
                }
            ]
        }
    ],
    "accessors" : [
        {
            "bufferView" : 0,
            "componentType" : 5126,
            "count" : 51946,
            "max" : [
                6.758977890014648,
                9.850016593933105,
                -10.204025268554688
            ],
            "min" : [
                -3.1424148082733154,
                -0.4153327941894531,
                -30.877300262451172
            ],
            "type" : "VEC3"
        },
        {
            "bufferView" : 1,
            "componentType" : 5126,
            "count" : 51946,
            "type" : "VEC2"
        },
        {
            "bufferView" : 2,
            "componentType" : 5126,
            "count" : 51946,
            "type" : "VEC3"
        },
        {
            "bufferView" : 3,
            "componentType" : 5123,
            "count" : 205332,
            "type" : "SCALAR"
        },
        {
            "bufferView" : 4,
            "componentType" : 5126,
            "count" : 2784,
            "max" : [
                2.9279537200927734,
                2.3731729984283447,
                -0.049782752990722656
            ],
            "min" : [
                -1.9072489738464355,
                -2.462028980255127,
                -0.9186539649963379
            ],
            "type" : "VEC3"
        },
        {
            "bufferView" : 5,
            "componentType" : 5126,
            "count" : 2784,
            "type" : "VEC2"
        },
        {
            "bufferView" : 6,
            "componentType" : 5126,
            "count" : 2784,
            "type" : "VEC3"
        },
        {
            "bufferView" : 7,
            "componentType" : 5123,
            "count" : 4128,
            "type" : "SCALAR"
        },
        {
            "bufferView" : 8,
            "componentType" : 5126,
            "count" : 968,
            "max" : [
                125.60676574707031,
                125.60679626464844,
                163.46514892578125
            ],
            "min" : [
                -125.60678100585938,
                -125.60676574707031,
                -100.69425964355469
            ],
            "type" : "VEC3"
        },
        {
            "bufferView" : 9,
            "componentType" : 5126,
            "count" : 968,
            "type" : "VEC2"
        },
        {
            "bufferView" : 10,
            "componentType" : 5126,
            "count" : 968,
            "type" : "VEC3"
        },
        {
            "bufferView" : 11,
            "componentType" : 5123,
            "count" : 4416,
            "type" : "SCALAR"
        },
        {
            "bufferView" : 12,
            "componentType" : 5126,
            "count" : 2048,
            "max" : [
                2.2490296363830566,
                1.694246530532837,
                -13.018424987792969
            ],
            "min" : [
                -1.2283658981323242,
                -1.7831482887268066,
                -16.76251983642578
            ],
            "type" : "VEC3"
        },
        {
            "bufferView" : 13,
            "componentType" : 5126,
            "count" : 2048,
            "type" : "VEC2"
        },
        {
            "bufferView" : 14,
            "componentType" : 5126,
            "count" : 2048,
            "type" : "VEC3"
        },
        {
            "bufferView" : 15,
            "componentType" : 5123,
            "count" : 3072,
            "type" : "SCALAR"
        },
        {
            "bufferView" : 16,
            "componentType" : 5126,
            "count" : 435,
            "max" : [
                4.266932487487793,
                7.91733455657959,
                -10.222003936767578
            ],
            "min" : [
                -1.0732401609420776,
                2.5829689502716064,
                -10.603416442871094
            ],
            "type" : "VEC3"
        },
        {
            "bufferView" : 17,
            "componentType" : 5126,
            "count" : 435,
            "type" : "VEC2"
        },
        {
            "bufferView" : 18,
            "componentType" : 5126,
            "count" : 435,
            "type" : "VEC3"
        },
        {
            "bufferView" : 19,
            "componentType" : 5123,
            "count" : 2418,
            "type" : "SCALAR"
        }
    ],
    "bufferViews" : [
        {
            "buffer" : 0,
            "byteLength" : 623352,
            "byteOffset" : 0,
            "target" : 34962
        },
        {
            "buffer" : 0,
            "byteLength" : 415568,
            "byteOffset" : 623352,
            "target" : 34962
        },
        {
            "buffer" : 0,
            "byteLength" : 623352,
            "byteOffset" : 1038920,
            "target" : 34962
        },
        {
            "buffer" : 0,
            "byteLength" : 410664,
            "byteOffset" : 1662272,
            "target" : 34963
        },
        {
            "buffer" : 0,
            "byteLength" : 33408,
            "byteOffset" : 2072936,
            "target" : 34962
        },
        {
            "buffer" : 0,
            "byteLength" : 22272,
            "byteOffset" : 2106344,
            "target" : 34962
        },
        {
            "buffer" : 0,
            "byteLength" : 33408,
            "byteOffset" : 2128616,
            "target" : 34962
        },
        {
            "buffer" : 0,
            "byteLength" : 8256,
            "byteOffset" : 2162024,
            "target" : 34963
        },
        {
            "buffer" : 0,
            "byteLength" : 11616,
            "byteOffset" : 2170280,
            "target" : 34962
        },
        {
            "buffer" : 0,
            "byteLength" : 7744,
            "byteOffset" : 2181896,
            "target" : 34962
        },
        {
            "buffer" : 0,
            "byteLength" : 11616,
            "byteOffset" : 2189640,
            "target" : 34962
        },
        {
            "buffer" : 0,
            "byteLength" : 8832,
            "byteOffset" : 2201256,
            "target" : 34963
        },
        {
            "buffer" : 0,
            "byteLength" : 24576,
            "byteOffset" : 2210088,
            "target" : 34962
        },
        {
            "buffer" : 0,
            "byteLength" : 16384,
            "byteOffset" : 2234664,
            "target" : 34962
        },
        {
            "buffer" : 0,
            "byteLength" : 24576,
            "byteOffset" : 2251048,
            "target" : 34962
        },
        {
            "buffer" : 0,
            "byteLength" : 6144,
            "byteOffset" : 2275624,
            "target" : 34963
        },
        {
            "buffer" : 0,
            "byteLength" : 5220,
            "byteOffset" : 2281768,
            "target" : 34962
        },
        {
            "buffer" : 0,
            "byteLength" : 3480,
            "byteOffset" : 2286988,
            "target" : 34962
        },
        {
            "buffer" : 0,
            "byteLength" : 5220,
            "byteOffset" : 2290468,
            "target" : 34962
        },
        {
            "buffer" : 0,
            "byteLength" : 4836,
            "byteOffset" : 2295688,
            "target" : 34963
        }
    ],
    "buffers" : [
        {
            "byteLength" : 2300524,
            "uri" : "data:application/octet-stream;base64,"
        }
    ]
}
