{"asset": {"generator": "Khronos glTF Blender I/O v3.4.50", "version": "2.0"}, "scene": 0, "scenes": [{"name": "Scene", "nodes": [0, 1, 2, 3, 4, 5, 6, 7, 8, 9, 10]}], "nodes": [{"mesh": 0, "name": "armrest_01", "rotation": [0.4999999403953552, -0.4999998211860657, 0.5000003576278687, 0.4999998211860657], "scale": [0.004005429334938526, 0.004005427937954664, 0.004005427937954664], "translation": [-0.0001479554921388626, -0.20169398188591003, 0.0010412661358714104]}, {"mesh": 1, "name": "leg_01", "rotation": [0.4999999403953552, -0.4999998211860657, 0.5000003576278687, 0.4999998211860657], "scale": [0.004005429334938526, 0.004005427937954664, 0.004005427937954664], "translation": [-0.00014794804155826569, -0.20169398188591003, -0.0011333972215652466]}, {"mesh": 2, "name": "seat_01", "rotation": [0.4999999403953552, -0.4999998211860657, 0.5000003576278687, 0.4999998211860657], "scale": [0.004005429334938526, 0.004005427937954664, 0.004005427937954664], "translation": [-0.0001479554921388626, -0.20169398188591003, -0.0011333972215652466]}, {"mesh": 3, "name": "leg_02", "rotation": [0.4999999403953552, -0.4999998211860657, 0.5000003576278687, 0.4999998211860657], "scale": [0.004005429334938526, 0.004005427937954664, 0.004005427937954664], "translation": [0.021183378994464874, -0.20169398188591003, -0.01892414689064026]}, {"mesh": 4, "name": "leg_03", "rotation": [0.4999999403953552, -0.4999998211860657, 0.5000003576278687, 0.4999998211860657], "scale": [0.004005429334938526, 0.004005427937954664, 0.004005427937954664], "translation": [-0.00014794804155826569, -0.20169398188591003, -0.0011333972215652466]}, {"mesh": 5, "name": "leg_04", "rotation": [0.4999999403953552, -0.4999998211860657, 0.5000003576278687, 0.4999998211860657], "scale": [0.004005429334938526, 0.004005427937954664, 0.004005427937954664], "translation": [-0.00014794804155826569, -0.20169398188591003, -0.018924148753285408]}, {"mesh": 6, "name": "leg_05", "rotation": [0.4999999403953552, -0.4999998211860657, 0.5000003576278687, 0.4999998211860657], "scale": [0.004005429334938526, 0.004005427937954664, 0.004005427937954664], "translation": [-0.03191341087222099, -0.20169398188591003, -0.018924152478575706]}, {"mesh": 7, "name": "leg_06", "rotation": [0.4999999403953552, -0.4999998211860657, 0.5000003576278687, 0.4999998211860657], "scale": [0.004005429334938526, 0.004005427937954664, 0.004005427937954664], "translation": [-0.00014794804155826569, -0.20169398188591003, -0.0011333972215652466]}, {"mesh": 8, "name": "seat_support_01", "rotation": [0, 0.7071068286895752, -0.7071068286895752, 2.9802322387695312e-08], "scale": [0.004005431663244963, 0.004005429334938526, 0.005086702760308981], "translation": [-0.00012345053255558014, -0.0961928740143776, 0.03917067497968674]}, {"mesh": 9, "name": "backrest_01", "rotation": [0.4999999403953552, -0.4999998211860657, 0.5000003576278687, 0.4999998211860657], "scale": [0.004005429334938526, 0.004005427937954664, 0.004005427937954664], "translation": [-0.0001479554921388626, -0.20169398188591003, 0.0010412661358714104]}, {"mesh": 10, "name": "armrest_02", "rotation": [0.4999999403953552, -0.4999998211860657, 0.5000003576278687, 0.4999998211860657], "scale": [0.004005429334938526, 0.004005427937954664, 0.004005427937954664], "translation": [-0.0001479554921388626, -0.20169398188591003, 0.0010412661358714104]}], "materials": [{"doubleSided": true, "name": "mat_armrest_01", "normalTexture": {"index": 0}, "pbrMetallicRoughness": {"baseColorTexture": {"index": 1}, "metallicRoughnessTexture": {"index": 2}}}, {"doubleSided": true, "name": "mat_leg_01", "normalTexture": {"index": 3}, "pbrMetallicRoughness": {"baseColorTexture": {"index": 4}, "metallicRoughnessTexture": {"index": 5}}}, {"doubleSided": true, "name": "mat_seat_01", "normalTexture": {"index": 6}, "pbrMetallicRoughness": {"baseColorTexture": {"index": 7}, "metallicRoughnessTexture": {"index": 8}}}, {"doubleSided": true, "name": "mat_leg_02", "normalTexture": {"index": 9}, "pbrMetallicRoughness": {"baseColorTexture": {"index": 10}, "metallicRoughnessTexture": {"index": 11}}}, {"doubleSided": true, "name": "mat_leg_03", "normalTexture": {"index": 12}, "pbrMetallicRoughness": {"baseColorTexture": {"index": 13}, "metallicRoughnessTexture": {"index": 14}}}, {"doubleSided": true, "name": "mat_leg_04", "normalTexture": {"index": 15}, "pbrMetallicRoughness": {"baseColorTexture": {"index": 16}, "metallicRoughnessTexture": {"index": 17}}}, {"doubleSided": true, "name": "mat_leg_05", "normalTexture": {"index": 18}, "pbrMetallicRoughness": {"baseColorTexture": {"index": 19}, "metallicRoughnessTexture": {"index": 20}}}, {"doubleSided": true, "name": "mat_leg_06", "normalTexture": {"index": 21}, "pbrMetallicRoughness": {"baseColorTexture": {"index": 22}, "metallicRoughnessTexture": {"index": 23}}}, {"doubleSided": true, "name": "mat_seat_support_01", "normalTexture": {"index": 24}, "pbrMetallicRoughness": {"baseColorTexture": {"index": 25}, "metallicRoughnessTexture": {"index": 26}}}, {"doubleSided": true, "name": "mat_backrest_01", "normalTexture": {"index": 27}, "pbrMetallicRoughness": {"baseColorTexture": {"index": 28}, "metallicRoughnessTexture": {"index": 29}}}, {"doubleSided": true, "name": "mat_armrest_02", "normalTexture": {"index": 30}, "pbrMetallicRoughness": {"baseColorTexture": {"index": 31}, "metallicRoughnessTexture": {"index": 32}}}], "meshes": [{"name": "Mesh", "primitives": [{"attributes": {"POSITION": 0, "TEXCOORD_0": 1, "NORMAL": 2}, "indices": 3, "material": 0}]}, {"name": "Mesh.001", "primitives": [{"attributes": {"POSITION": 4, "TEXCOORD_0": 5, "NORMAL": 6}, "indices": 7, "material": 1}]}, {"name": "Mesh.002", "primitives": [{"attributes": {"POSITION": 8, "TEXCOORD_0": 9, "NORMAL": 10}, "indices": 11, "material": 2}]}, {"name": "Mesh.003", "primitives": [{"attributes": {"POSITION": 12, "TEXCOORD_0": 13, "NORMAL": 14}, "indices": 15, "material": 3}]}, {"name": "Mesh.004", "primitives": [{"attributes": {"POSITION": 16, "TEXCOORD_0": 17, "NORMAL": 18}, "indices": 19, "material": 4}]}, {"name": "Mesh.005", "primitives": [{"attributes": {"POSITION": 20, "TEXCOORD_0": 21, "NORMAL": 22}, "indices": 23, "material": 5}]}, {"name": "Mesh.006", "primitives": [{"attributes": {"POSITION": 24, "TEXCOORD_0": 25, "NORMAL": 26}, "indices": 27, "material": 6}]}, {"name": "Mesh.007", "primitives": [{"attributes": {"POSITION": 28, "TEXCOORD_0": 29, "NORMAL": 30}, "indices": 31, "material": 7}]}, {"name": "Mesh.008", "primitives": [{"attributes": {"POSITION": 32, "TEXCOORD_0": 33, "NORMAL": 34}, "indices": 35, "material": 8}]}, {"name": "Mesh.009", "primitives": [{"attributes": {"POSITION": 36, "TEXCOORD_0": 37, "NORMAL": 38}, "indices": 39, "material": 9}]}, {"name": "Mesh.010", "primitives": [{"attributes": {"POSITION": 40, "TEXCOORD_0": 41, "NORMAL": 42}, "indices": 43, "material": 10}]}], "textures": [{"sampler": 0, "source": 0}, {"sampler": 0, "source": 1}, {"sampler": 0, "source": 2}, {"sampler": 0, "source": 3}, {"sampler": 0, "source": 4}, {"sampler": 0, "source": 5}, {"sampler": 0, "source": 6}, {"sampler": 0, "source": 7}, {"sampler": 0, "source": 8}, {"sampler": 0, "source": 3}, {"sampler": 0, "source": 4}, {"sampler": 0, "source": 5}, {"sampler": 0, "source": 3}, {"sampler": 0, "source": 4}, {"sampler": 0, "source": 5}, {"sampler": 0, "source": 3}, {"sampler": 0, "source": 4}, {"sampler": 0, "source": 5}, {"sampler": 0, "source": 3}, {"sampler": 0, "source": 4}, {"sampler": 0, "source": 5}, {"sampler": 0, "source": 3}, {"sampler": 0, "source": 4}, {"sampler": 0, "source": 5}, {"sampler": 0, "source": 9}, {"sampler": 0, "source": 10}, {"sampler": 0, "source": 11}, {"sampler": 0, "source": 12}, {"sampler": 0, "source": 13}, {"sampler": 0, "source": 14}, {"sampler": 0, "source": 0}, {"sampler": 0, "source": 1}, {"sampler": 0, "source": 2}], "images": [{"mimeType": "type_placeholder", "name": "armrest", "uri": "normal"}, {"mimeType": "type_placeholder", "name": "armrest", "uri": "diffuse"}, {"mimeType": "type_placeholder", "name": "armrest", "uri": "metallic-roughness"}, {"mimeType": "type_placeholder", "name": "leg", "uri": "normal"}, {"mimeType": "type_placeholder", "name": "leg", "uri": "diffuse"}, {"mimeType": "type_placeholder", "name": "leg", "uri": "metallic-roughness"}, {"mimeType": "type_placeholder", "name": "seat", "uri": "normal"}, {"mimeType": "type_placeholder", "name": "seat", "uri": "diffuse"}, {"mimeType": "type_placeholder", "name": "seat", "uri": "metallic-roughness"}, {"mimeType": "type_placeholder", "name": "seat_support", "uri": "normal"}, {"mimeType": "type_placeholder", "name": "seat_support", "uri": "diffuse"}, {"mimeType": "type_placeholder", "name": "seat_support", "uri": "metallic-roughness"}, {"mimeType": "type_placeholder", "name": "backrest", "uri": "normal"}, {"mimeType": "type_placeholder", "name": "backrest", "uri": "diffuse"}, {"mimeType": "type_placeholder", "name": "backrest", "uri": "metallic-roughness"}], "accessors": [{"bufferView": 0, "componentType": 5126, "count": 4468, "max": [34.211639404296875, 124.05745697021484, -9.61881160736084], "min": [-60.944541931152344, 103.35374450683594, -100.2270736694336], "type": "VEC3"}, {"bufferView": 1, "componentType": 5126, "count": 4468, "type": "VEC2"}, {"bufferView": 2, "componentType": 5126, "count": 4468, "type": "VEC3"}, {"bufferView": 3, "componentType": 5123, "count": 20400, "type": "SCALAR"}, {"bufferView": 4, "componentType": 5126, "count": 633, "max": [-46.221214294433594, -111.5886001586914, -0.6142129302024841], "min": [-53.91807174682617, -119.83531188964844, -11.476127624511719], "type": "VEC3"}, {"bufferView": 5, "componentType": 5126, "count": 633, "type": "VEC2"}, {"bufferView": 6, "componentType": 5126, "count": 633, "type": "VEC3"}, {"bufferView": 7, "componentType": 5123, "count": 3120, "type": "SCALAR"}, {"bufferView": 8, "componentType": 5126, "count": 2602, "max": [60.94468307495117, 124.79360961914062, -32.171234130859375], "min": [-44.24626541137695, -124.86756134033203, -63.341129302978516], "type": "VEC3"}, {"bufferView": 9, "componentType": 5126, "count": 2602, "type": "VEC2"}, {"bufferView": 10, "componentType": 5126, "count": 2602, "type": "VEC3"}, {"bufferView": 11, "componentType": 5123, "count": 12864, "type": "SCALAR"}, {"bufferView": 12, "componentType": 5126, "count": 596, "max": [59.634822845458984, 122.76129150390625, -0.4832410514354706], "min": [50.089683532714844, 113.8416519165039, -22.691158294677734], "type": "VEC3"}, {"bufferView": 13, "componentType": 5126, "count": 596, "type": "VEC2"}, {"bufferView": 14, "componentType": 5126, "count": 596, "type": "VEC3"}, {"bufferView": 15, "componentType": 5123, "count": 1032, "type": "SCALAR"}, {"bufferView": 16, "componentType": 5126, "count": 633, "max": [-46.221214294433594, 120.25250244140625, -0.6142129302024841], "min": [-53.91807174682617, 112.00579071044922, -11.476127624511719], "type": "VEC3"}, {"bufferView": 17, "componentType": 5126, "count": 633, "type": "VEC2"}, {"bufferView": 18, "componentType": 5126, "count": 633, "type": "VEC3"}, {"bufferView": 19, "componentType": 5123, "count": 3120, "type": "SCALAR"}, {"bufferView": 20, "componentType": 5126, "count": 617, "max": [59.634822845458984, 3.698826313018799, -0.4832410514354706], "min": [50.089683532714844, -5.219963073730469, -22.691158294677734], "type": "VEC3"}, {"bufferView": 21, "componentType": 5126, "count": 617, "type": "VEC2"}, {"bufferView": 22, "componentType": 5126, "count": 617, "type": "VEC3"}, {"bufferView": 23, "componentType": 5123, "count": 1032, "type": "SCALAR"}, {"bufferView": 24, "componentType": 5126, "count": 614, "max": [59.634822845458984, -113.90657043457031, -0.4832410514354706], "min": [50.089683532714844, -122.82564544677734, -22.691158294677734], "type": "VEC3"}, {"bufferView": 25, "componentType": 5126, "count": 614, "type": "VEC2"}, {"bufferView": 26, "componentType": 5126, "count": 614, "type": "VEC3"}, {"bufferView": 27, "componentType": 5123, "count": 1032, "type": "SCALAR"}, {"bufferView": 28, "componentType": 5126, "count": 634, "max": [-46.221214294433594, 2.4441497325897217, -0.6142129302024841], "min": [-53.91807174682617, -3.9170186519622803, -11.476127624511719], "type": "VEC3"}, {"bufferView": 29, "componentType": 5126, "count": 634, "type": "VEC2"}, {"bufferView": 30, "componentType": 5126, "count": 634, "type": "VEC3"}, {"bufferView": 31, "componentType": 5123, "count": 3120, "type": "SCALAR"}, {"bufferView": 32, "componentType": 5126, "count": 3745, "max": [120.18187713623047, 52.26502990722656, 12.626123428344727], "min": [-119.95115661621094, -50.905494689941406, -11.531637191772461], "type": "VEC3"}, {"bufferView": 33, "componentType": 5126, "count": 3745, "type": "VEC2"}, {"bufferView": 34, "componentType": 5126, "count": 3745, "type": "VEC3"}, {"bufferView": 35, "componentType": 5123, "count": 20736, "type": "SCALAR"}, {"bufferView": 36, "componentType": 5126, "count": 5217, "max": [-39.099937438964844, 114.77426147460938, -9.61881160736084], "min": [-60.94482421875, -115.24028778076172, -100.22594451904297], "type": "VEC3"}, {"bufferView": 37, "componentType": 5126, "count": 5217, "type": "VEC2"}, {"bufferView": 38, "componentType": 5126, "count": 5217, "type": "VEC3"}, {"bufferView": 39, "componentType": 5123, "count": 9084, "type": "SCALAR"}, {"bufferView": 40, "componentType": 5126, "count": 11538, "max": [34.211639404296875, -105.62683868408203, -9.61881160736084], "min": [-60.944541931152344, -124.13141632080078, -100.2270736694336], "type": "VEC3"}, {"bufferView": 41, "componentType": 5126, "count": 11538, "type": "VEC2"}, {"bufferView": 42, "componentType": 5126, "count": 11538, "type": "VEC3"}, {"bufferView": 43, "componentType": 5123, "count": 20232, "type": "SCALAR"}], "bufferViews": [{"buffer": 0, "byteLength": 53616, "byteOffset": 0, "target": 34962}, {"buffer": 0, "byteLength": 35744, "byteOffset": 53616, "target": 34962}, {"buffer": 0, "byteLength": 53616, "byteOffset": 89360, "target": 34962}, {"buffer": 0, "byteLength": 40800, "byteOffset": 142976, "target": 34963}, {"buffer": 0, "byteLength": 7596, "byteOffset": 183776, "target": 34962}, {"buffer": 0, "byteLength": 5064, "byteOffset": 191372, "target": 34962}, {"buffer": 0, "byteLength": 7596, "byteOffset": 196436, "target": 34962}, {"buffer": 0, "byteLength": 6240, "byteOffset": 204032, "target": 34963}, {"buffer": 0, "byteLength": 31224, "byteOffset": 210272, "target": 34962}, {"buffer": 0, "byteLength": 20816, "byteOffset": 241496, "target": 34962}, {"buffer": 0, "byteLength": 31224, "byteOffset": 262312, "target": 34962}, {"buffer": 0, "byteLength": 25728, "byteOffset": 293536, "target": 34963}, {"buffer": 0, "byteLength": 7152, "byteOffset": 319264, "target": 34962}, {"buffer": 0, "byteLength": 4768, "byteOffset": 326416, "target": 34962}, {"buffer": 0, "byteLength": 7152, "byteOffset": 331184, "target": 34962}, {"buffer": 0, "byteLength": 2064, "byteOffset": 338336, "target": 34963}, {"buffer": 0, "byteLength": 7596, "byteOffset": 340400, "target": 34962}, {"buffer": 0, "byteLength": 5064, "byteOffset": 347996, "target": 34962}, {"buffer": 0, "byteLength": 7596, "byteOffset": 353060, "target": 34962}, {"buffer": 0, "byteLength": 6240, "byteOffset": 360656, "target": 34963}, {"buffer": 0, "byteLength": 7404, "byteOffset": 366896, "target": 34962}, {"buffer": 0, "byteLength": 4936, "byteOffset": 374300, "target": 34962}, {"buffer": 0, "byteLength": 7404, "byteOffset": 379236, "target": 34962}, {"buffer": 0, "byteLength": 2064, "byteOffset": 386640, "target": 34963}, {"buffer": 0, "byteLength": 7368, "byteOffset": 388704, "target": 34962}, {"buffer": 0, "byteLength": 4912, "byteOffset": 396072, "target": 34962}, {"buffer": 0, "byteLength": 7368, "byteOffset": 400984, "target": 34962}, {"buffer": 0, "byteLength": 2064, "byteOffset": 408352, "target": 34963}, {"buffer": 0, "byteLength": 7608, "byteOffset": 410416, "target": 34962}, {"buffer": 0, "byteLength": 5072, "byteOffset": 418024, "target": 34962}, {"buffer": 0, "byteLength": 7608, "byteOffset": 423096, "target": 34962}, {"buffer": 0, "byteLength": 6240, "byteOffset": 430704, "target": 34963}, {"buffer": 0, "byteLength": 44940, "byteOffset": 436944, "target": 34962}, {"buffer": 0, "byteLength": 29960, "byteOffset": 481884, "target": 34962}, {"buffer": 0, "byteLength": 44940, "byteOffset": 511844, "target": 34962}, {"buffer": 0, "byteLength": 41472, "byteOffset": 556784, "target": 34963}, {"buffer": 0, "byteLength": 62604, "byteOffset": 598256, "target": 34962}, {"buffer": 0, "byteLength": 41736, "byteOffset": 660860, "target": 34962}, {"buffer": 0, "byteLength": 62604, "byteOffset": 702596, "target": 34962}, {"buffer": 0, "byteLength": 18168, "byteOffset": 765200, "target": 34963}, {"buffer": 0, "byteLength": 138456, "byteOffset": 783368, "target": 34962}, {"buffer": 0, "byteLength": 92304, "byteOffset": 921824, "target": 34962}, {"buffer": 0, "byteLength": 138456, "byteOffset": 1014128, "target": 34962}, {"buffer": 0, "byteLength": 40464, "byteOffset": 1152584, "target": 34963}], "samplers": [{"magFilter": 9729, "minFilter": 9987}], "buffers": [{"byteLength": 1193048, "uri": "data:application/octet-stream;base64,"}]}