{
    "asset" : {
        "generator" : "Khronos glTF Blender I/O v3.4.50",
        "version" : "2.0"
    },
    "scene" : 0,
    "scenes" : [
        {
            "name" : "Scene",
            "nodes" : [
                0,
                1,
                2,
                3
            ]
        }
    ],
    "nodes" : [
        {
            "mesh" : 0,
            "name" : "top_connector_01",
            "rotation" : [
                0.70710688829422,
                0,
                0,
                0.7071066498756409
            ],
            "scale" : [
                0.007584665436297655,
                0.007584663107991219,
                0.007584663107991219
            ],
            "translation" : [
                -0.00022557016927748919,
                0.16277563571929932,
                -0.0001023290678858757
            ]
        },
        {
            "mesh" : 1,
            "name" : "horizontal_top_panel_01",
            "rotation" : [
                0.70710688829422,
                0,
                0,
                0.7071066498756409
            ],
            "scale" : [
                0.007584665436297655,
                0.007584663107991219,
                0.007584663107991219
            ],
            "translation" : [
                -0.002359625417739153,
                -0.2654811143875122,
                -0.01737649366259575
            ]
        },
        {
            "mesh" : 2,
            "name" : "pedestal_01",
            "rotation" : [
                0.70710688829422,
                0,
                0,
                0.7071066498756409
            ],
            "scale" : [
                0.007584665436297655,
                0.007584663107991219,
                0.007584663107991219
            ],
            "translation" : [
                -0.00022568588610738516,
                -0.06943259388208389,
                -0.00010279286652803421
            ]
        },
        {
            "mesh" : 3,
            "name" : "support_01",
            "rotation" : [
                0.70710688829422,
                0,
                0,
                0.7071066498756409
            ],
            "scale" : [
                0.007584665436297655,
                0.007584663107991219,
                0.007584663107991219
            ],
            "translation" : [
                -0.00022568588610738516,
                -0.06943259388208389,
                -0.00010279286652803421
            ]
        }
    ],
    "meshes" : [
        {
            "name" : "Mesh",
            "primitives" : [
                {
                    "attributes" : {
                        "POSITION" : 0,
                        "TEXCOORD_0" : 1,
                        "NORMAL" : 2
                    },
                    "indices" : 3
                }
            ]
        },
        {
            "name" : "Mesh.001",
            "primitives" : [
                {
                    "attributes" : {
                        "POSITION" : 4,
                        "TEXCOORD_0" : 5,
                        "NORMAL" : 6
                    },
                    "indices" : 7
                }
            ]
        },
        {
            "name" : "Mesh.002",
            "primitives" : [
                {
                    "attributes" : {
                        "POSITION" : 8,
                        "TEXCOORD_0" : 9,
                        "NORMAL" : 10
                    },
                    "indices" : 11
                }
            ]
        },
        {
            "name" : "Mesh.003",
            "primitives" : [
                {
                    "attributes" : {
                        "POSITION" : 12,
                        "TEXCOORD_0" : 13,
                        "NORMAL" : 14
                    },
                    "indices" : 15
                }
            ]
        }
    ],
    "accessors" : [
        {
            "bufferView" : 0,
            "componentType" : 5126,
            "count" : 25399,
            "max" : [
                19.7025146484375,
                19.702529907226562,
                6.772258758544922
            ],
            "min" : [
                -19.7025146484375,
                -19.702529907226562,
                -6.772254943847656
            ],
            "type" : "VEC3"
        },
        {
            "bufferView" : 1,
            "componentType" : 5126,
            "count" : 25399,
            "type" : "VEC2"
        },
        {
            "bufferView" : 2,
            "componentType" : 5126,
            "count" : 25399,
            "type" : "VEC3"
        },
        {
            "bufferView" : 3,
            "componentType" : 5123,
            "count" : 36240,
            "type" : "SCALAR"
        },
        {
            "bufferView" : 4,
            "componentType" : 5126,
            "count" : 14172,
            "max" : [
                66.23358917236328,
                68.21347045898438,
                -63.1595573425293
            ],
            "min" : [
                -65.61138153076172,
                -63.631500244140625,
                -68.69107818603516
            ],
            "type" : "VEC3"
        },
        {
            "bufferView" : 5,
            "componentType" : 5126,
            "count" : 14172,
            "type" : "VEC2"
        },
        {
            "bufferView" : 6,
            "componentType" : 5126,
            "count" : 14172,
            "type" : "VEC3"
        },
        {
            "bufferView" : 7,
            "componentType" : 5123,
            "count" : 44154,
            "type" : "SCALAR"
        },
        {
            "bufferView" : 8,
            "componentType" : 5126,
            "count" : 34739,
            "max" : [
                19.719894409179688,
                19.719894409179688,
                24.534393310546875
            ],
            "min" : [
                -19.719894409179688,
                -19.719894409179688,
                -19.307754516601562
            ],
            "type" : "VEC3"
        },
        {
            "bufferView" : 9,
            "componentType" : 5126,
            "count" : 34739,
            "type" : "VEC2"
        },
        {
            "bufferView" : 10,
            "componentType" : 5126,
            "count" : 34739,
            "type" : "VEC3"
        },
        {
            "bufferView" : 11,
            "componentType" : 5123,
            "count" : 44880,
            "type" : "SCALAR"
        },
        {
            "bufferView" : 12,
            "componentType" : 5126,
            "count" : 352,
            "max" : [
                6.6277008056640625,
                6.627716541290283,
                -18.630958557128906
            ],
            "min" : [
                -6.627708435058594,
                -6.6277008056640625,
                -24.534393310546875
            ],
            "type" : "VEC3"
        },
        {
            "bufferView" : 13,
            "componentType" : 5126,
            "count" : 352,
            "type" : "VEC2"
        },
        {
            "bufferView" : 14,
            "componentType" : 5126,
            "count" : 352,
            "type" : "VEC3"
        },
        {
            "bufferView" : 15,
            "componentType" : 5123,
            "count" : 360,
            "type" : "SCALAR"
        }
    ],
    "bufferViews" : [
        {
            "buffer" : 0,
            "byteLength" : 304788,
            "byteOffset" : 0,
            "target" : 34962
        },
        {
            "buffer" : 0,
            "byteLength" : 203192,
            "byteOffset" : 304788,
            "target" : 34962
        },
        {
            "buffer" : 0,
            "byteLength" : 304788,
            "byteOffset" : 507980,
            "target" : 34962
        },
        {
            "buffer" : 0,
            "byteLength" : 72480,
            "byteOffset" : 812768,
            "target" : 34963
        },
        {
            "buffer" : 0,
            "byteLength" : 170064,
            "byteOffset" : 885248,
            "target" : 34962
        },
        {
            "buffer" : 0,
            "byteLength" : 113376,
            "byteOffset" : 1055312,
            "target" : 34962
        },
        {
            "buffer" : 0,
            "byteLength" : 170064,
            "byteOffset" : 1168688,
            "target" : 34962
        },
        {
            "buffer" : 0,
            "byteLength" : 88308,
            "byteOffset" : 1338752,
            "target" : 34963
        },
        {
            "buffer" : 0,
            "byteLength" : 416868,
            "byteOffset" : 1427060,
            "target" : 34962
        },
        {
            "buffer" : 0,
            "byteLength" : 277912,
            "byteOffset" : 1843928,
            "target" : 34962
        },
        {
            "buffer" : 0,
            "byteLength" : 416868,
            "byteOffset" : 2121840,
            "target" : 34962
        },
        {
            "buffer" : 0,
            "byteLength" : 89760,
            "byteOffset" : 2538708,
            "target" : 34963
        },
        {
            "buffer" : 0,
            "byteLength" : 4224,
            "byteOffset" : 2628468,
            "target" : 34962
        },
        {
            "buffer" : 0,
            "byteLength" : 2816,
            "byteOffset" : 2632692,
            "target" : 34962
        },
        {
            "buffer" : 0,
            "byteLength" : 4224,
            "byteOffset" : 2635508,
            "target" : 34962
        },
        {
            "buffer" : 0,
            "byteLength" : 720,
            "byteOffset" : 2639732,
            "target" : 34963
        }
    ],
    "buffers" : [
        {
            "byteLength" : 2640452,
            "uri" : "data:application/octet-stream;base64,"
        }
    ]
}
