{
    "asset" : {
        "generator" : "Khronos glTF Blender I/O v3.4.50",
        "version" : "2.0"
    },
    "scene" : 0,
    "scenes" : [
        {
            "name" : "Scene",
            "nodes" : [
                0,
                1,
                2,
                3
            ]
        }
    ],
    "nodes" : [
        {
            "mesh" : 0,
            "name" : "top_frame_01",
            "rotation" : [
                0,
                -0.7402182221412659,
                0,
                0.672366738319397
            ],
            "scale" : [
                0.05311071127653122,
                0.053110700100660324,
                0.05311071127653122
            ],
            "translation" : [
                0,
                0.42412787675857544,
                0
            ]
        },
        {
            "mesh" : 1,
            "name" : "horizontal_top_panel_01",
            "rotation" : [
                0,
                -0.7402182221412659,
                0,
                0.672366738319397
            ],
            "scale" : [
                0.05311071127653122,
                0.053110700100660324,
                0.05311071127653122
            ],
            "translation" : [
                0,
                0.4168094992637634,
                0
            ]
        },
        {
            "mesh" : 2,
            "name" : "support_01",
            "rotation" : [
                0,
                -0.7402182221412659,
                0,
                0.672366738319397
            ],
            "scale" : [
                0.05311071127653122,
                0.053110700100660324,
                0.05311071127653122
            ],
            "translation" : [
                0,
                -0.03588606417179108,
                0
            ]
        },
        {
            "mesh" : 3,
            "name" : "pedestal_01",
            "rotation" : [
                0,
                -0.9255405068397522,
                0,
                0.3786486089229584
            ],
            "scale" : [
                0.014967662282288074,
                0.05902053788304329,
                0.014967662282288074
            ],
            "translation" : [
                0,
                -0.459556519985199,
                0
            ]
        }
    ],
    "meshes" : [
        {
            "name" : "Mesh",
            "primitives" : [
                {
                    "attributes" : {
                        "POSITION" : 0,
                        "TEXCOORD_0" : 1,
                        "NORMAL" : 2
                    },
                    "indices" : 3
                }
            ]
        },
        {
            "name" : "Mesh.001",
            "primitives" : [
                {
                    "attributes" : {
                        "POSITION" : 4,
                        "TEXCOORD_0" : 5,
                        "NORMAL" : 6
                    },
                    "indices" : 7
                }
            ]
        },
        {
            "name" : "Mesh.002",
            "primitives" : [
                {
                    "attributes" : {
                        "POSITION" : 8,
                        "TEXCOORD_0" : 9,
                        "NORMAL" : 10
                    },
                    "indices" : 11
                }
            ]
        },
        {
            "name" : "Mesh.003",
            "primitives" : [
                {
                    "attributes" : {
                        "POSITION" : 12,
                        "TEXCOORD_0" : 13,
                        "NORMAL" : 14
                    },
                    "indices" : 15
                }
            ]
        }
    ],
    "accessors" : [
        {
            "bufferView" : 0,
            "componentType" : 5126,
            "count" : 4452,
            "max" : [
                6.889763832092285,
                0.8858261108398438,
                6.889763832092285
            ],
            "min" : [
                -6.889763832092285,
                -0.8858261108398438,
                -6.889763832092285
            ],
            "type" : "VEC3"
        },
        {
            "bufferView" : 1,
            "componentType" : 5126,
            "count" : 4452,
            "type" : "VEC2"
        },
        {
            "bufferView" : 2,
            "componentType" : 5126,
            "count" : 4452,
            "type" : "VEC3"
        },
        {
            "bufferView" : 3,
            "componentType" : 5123,
            "count" : 16128,
            "type" : "SCALAR"
        },
        {
            "bufferView" : 4,
            "componentType" : 5126,
            "count" : 2918,
            "max" : [
                6.653416633605957,
                0.7480316162109375,
                6.653416633605957
            ],
            "min" : [
                -6.653416633605957,
                -0.7480316162109375,
                -6.653416633605957
            ],
            "type" : "VEC3"
        },
        {
            "bufferView" : 5,
            "componentType" : 5126,
            "count" : 2918,
            "type" : "VEC2"
        },
        {
            "bufferView" : 6,
            "componentType" : 5126,
            "count" : 2918,
            "type" : "VEC3"
        },
        {
            "bufferView" : 7,
            "componentType" : 5123,
            "count" : 12084,
            "type" : "SCALAR"
        },
        {
            "bufferView" : 8,
            "componentType" : 5126,
            "count" : 2555,
            "max" : [
                6.771589756011963,
                7.775590896606445,
                6.769336223602295
            ],
            "min" : [
                -6.771589756011963,
                -7.775590896606445,
                -6.769336223602295
            ],
            "type" : "VEC3"
        },
        {
            "bufferView" : 9,
            "componentType" : 5126,
            "count" : 2555,
            "type" : "VEC2"
        },
        {
            "bufferView" : 10,
            "componentType" : 5126,
            "count" : 2555,
            "type" : "VEC3"
        },
        {
            "bufferView" : 11,
            "componentType" : 5123,
            "count" : 9648,
            "type" : "SCALAR"
        },
        {
            "bufferView" : 12,
            "componentType" : 5126,
            "count" : 874,
            "max" : [
                23.622047424316406,
                0.19685077667236328,
                23.622047424316406
            ],
            "min" : [
                -23.622047424316406,
                -0.19685029983520508,
                -23.622047424316406
            ],
            "type" : "VEC3"
        },
        {
            "bufferView" : 13,
            "componentType" : 5126,
            "count" : 874,
            "type" : "VEC2"
        },
        {
            "bufferView" : 14,
            "componentType" : 5126,
            "count" : 874,
            "type" : "VEC3"
        },
        {
            "bufferView" : 15,
            "componentType" : 5123,
            "count" : 1476,
            "type" : "SCALAR"
        }
    ],
    "bufferViews" : [
        {
            "buffer" : 0,
            "byteLength" : 53424,
            "byteOffset" : 0,
            "target" : 34962
        },
        {
            "buffer" : 0,
            "byteLength" : 35616,
            "byteOffset" : 53424,
            "target" : 34962
        },
        {
            "buffer" : 0,
            "byteLength" : 53424,
            "byteOffset" : 89040,
            "target" : 34962
        },
        {
            "buffer" : 0,
            "byteLength" : 32256,
            "byteOffset" : 142464,
            "target" : 34963
        },
        {
            "buffer" : 0,
            "byteLength" : 35016,
            "byteOffset" : 174720,
            "target" : 34962
        },
        {
            "buffer" : 0,
            "byteLength" : 23344,
            "byteOffset" : 209736,
            "target" : 34962
        },
        {
            "buffer" : 0,
            "byteLength" : 35016,
            "byteOffset" : 233080,
            "target" : 34962
        },
        {
            "buffer" : 0,
            "byteLength" : 24168,
            "byteOffset" : 268096,
            "target" : 34963
        },
        {
            "buffer" : 0,
            "byteLength" : 30660,
            "byteOffset" : 292264,
            "target" : 34962
        },
        {
            "buffer" : 0,
            "byteLength" : 20440,
            "byteOffset" : 322924,
            "target" : 34962
        },
        {
            "buffer" : 0,
            "byteLength" : 30660,
            "byteOffset" : 343364,
            "target" : 34962
        },
        {
            "buffer" : 0,
            "byteLength" : 19296,
            "byteOffset" : 374024,
            "target" : 34963
        },
        {
            "buffer" : 0,
            "byteLength" : 10488,
            "byteOffset" : 393320,
            "target" : 34962
        },
        {
            "buffer" : 0,
            "byteLength" : 6992,
            "byteOffset" : 403808,
            "target" : 34962
        },
        {
            "buffer" : 0,
            "byteLength" : 10488,
            "byteOffset" : 410800,
            "target" : 34962
        },
        {
            "buffer" : 0,
            "byteLength" : 2952,
            "byteOffset" : 421288,
            "target" : 34963
        }
    ],
    "buffers" : [
        {
            "byteLength" : 424240,
            "uri" : "data:application/octet-stream;base64,"
        }
    ]
}
